<svg width="35" height="35" viewBox="0 0 35 35" fill="none" xmlns="http://www.w3.org/2000/svg">
<path d="M5.46875 6.5625H3.28125C2.67719 6.5625 2.1875 7.05219 2.1875 7.65625V30.625C2.1875 31.2291 2.67719 31.7188 3.28125 31.7188H5.46875C6.07281 31.7188 6.5625 31.2291 6.5625 30.625V7.65625C6.5625 7.05219 6.07281 6.5625 5.46875 6.5625Z" stroke="#94A3B8" stroke-width="2" stroke-linejoin="round"/>
<path d="M7.65625 15.3125H16.4062" stroke="#94A3B8" stroke-width="2" stroke-linecap="round" stroke-linejoin="round"/>
<path d="M7.65625 27.3438H16.4062" stroke="#94A3B8" stroke-width="2" stroke-linecap="round" stroke-linejoin="round"/>
<path d="M15.3125 10.9375H8.75C8.14594 10.9375 7.65625 11.4272 7.65625 12.0312V30.625C7.65625 31.2291 8.14594 31.7188 8.75 31.7188H15.3125C15.9166 31.7188 16.4062 31.2291 16.4062 30.625V12.0312C16.4062 11.4272 15.9166 10.9375 15.3125 10.9375Z" stroke="#94A3B8" stroke-width="2" stroke-linejoin="round"/>
<path d="M22.9688 3.28125H18.5938C17.9897 3.28125 17.5 3.77094 17.5 4.375V30.625C17.5 31.2291 17.9897 31.7188 18.5938 31.7188H22.9688C23.5728 31.7188 24.0625 31.2291 24.0625 30.625V4.375C24.0625 3.77094 23.5728 3.28125 22.9688 3.28125Z" stroke="#94A3B8" stroke-width="2" stroke-linejoin="round"/>
<path d="M28.8792 6.57003L26.1175 6.86056C25.3573 6.94054 24.8063 7.65147 24.8918 8.43966L27.2789 30.4233C27.365 31.2115 28.0562 31.7905 28.8163 31.7112L31.578 31.4207C32.3382 31.3407 32.8892 30.6298 32.8037 29.8416L30.42 7.86134C30.3305 7.06974 29.6394 6.49005 28.8792 6.57003Z" stroke="#94A3B8" stroke-width="2" stroke-linejoin="round"/>
</svg>
