<svg width="35" height="35" viewBox="0 0 35 35" fill="none" xmlns="http://www.w3.org/2000/svg">
<path d="M28.4375 5.46875H6.5625C4.75032 5.46875 3.28125 6.93782 3.28125 8.75V28.4375C3.28125 30.2497 4.75032 31.7188 6.5625 31.7188H28.4375C30.2497 31.7188 31.7188 30.2497 31.7188 28.4375V8.75C31.7188 6.93782 30.2497 5.46875 28.4375 5.46875Z" stroke="#94A3B8" stroke-width="2" stroke-linejoin="round"/>
<path d="M20.875 15.8594C20.875 16.2132 20.5882 16.5 20.2344 16.5C19.8806 16.5 19.5938 16.2132 19.5938 15.8594C19.5938 15.5056 19.8806 15.2188 20.2344 15.2188C20.5882 15.2188 20.875 15.5056 20.875 15.8594Z" fill="black" stroke="#94A3B8" stroke-width="2"/>
<path d="M26.3438 15.8594C26.3438 16.2132 26.0569 16.5 25.7031 16.5C25.3493 16.5 25.0625 16.2132 25.0625 15.8594C25.0625 15.5056 25.3493 15.2188 25.7031 15.2188C26.0569 15.2188 26.3438 15.5056 26.3438 15.8594Z" fill="black" stroke="#94A3B8" stroke-width="2"/>
<path d="M20.875 21.3281C20.875 21.6819 20.5882 21.9688 20.2344 21.9688C19.8806 21.9688 19.5938 21.6819 19.5938 21.3281C19.5938 20.9743 19.8806 20.6875 20.2344 20.6875C20.5882 20.6875 20.875 20.9743 20.875 21.3281Z" fill="black" stroke="#94A3B8" stroke-width="2"/>
<path d="M26.3438 21.3281C26.3438 21.6819 26.0569 21.9688 25.7031 21.9688C25.3493 21.9688 25.0625 21.6819 25.0625 21.3281C25.0625 20.9743 25.3493 20.6875 25.7031 20.6875C26.0569 20.6875 26.3438 20.9743 26.3438 21.3281Z" fill="black" stroke="#94A3B8" stroke-width="2"/>
<path d="M9.9375 21.3281C9.9375 21.6819 9.65068 21.9688 9.29688 21.9688C8.94307 21.9688 8.65625 21.6819 8.65625 21.3281C8.65625 20.9743 8.94307 20.6875 9.29688 20.6875C9.65068 20.6875 9.9375 20.9743 9.9375 21.3281Z" fill="black" stroke="#94A3B8" stroke-width="2"/>
<path d="M15.4062 21.3281C15.4062 21.6819 15.1194 21.9688 14.7656 21.9688C14.4118 21.9688 14.125 21.6819 14.125 21.3281C14.125 20.9743 14.4118 20.6875 14.7656 20.6875C15.1194 20.6875 15.4062 20.9743 15.4062 21.3281Z" fill="black" stroke="#94A3B8" stroke-width="2"/>
<path d="M9.9375 26.7969C9.9375 27.1507 9.65068 27.4375 9.29688 27.4375C8.94307 27.4375 8.65625 27.1507 8.65625 26.7969C8.65625 26.4431 8.94307 26.1562 9.29688 26.1562C9.65068 26.1562 9.9375 26.4431 9.9375 26.7969Z" fill="black" stroke="#94A3B8" stroke-width="2"/>
<path d="M15.4062 26.7969C15.4062 27.1507 15.1194 27.4375 14.7656 27.4375C14.4118 27.4375 14.125 27.1507 14.125 26.7969C14.125 26.4431 14.4118 26.1562 14.7656 26.1562C15.1194 26.1562 15.4062 26.4431 15.4062 26.7969Z" fill="black" stroke="#94A3B8" stroke-width="2"/>
<path d="M20.875 26.7969C20.875 27.1507 20.5882 27.4375 20.2344 27.4375C19.8806 27.4375 19.5938 27.1507 19.5938 26.7969C19.5938 26.4431 19.8806 26.1562 20.2344 26.1562C20.5882 26.1562 20.875 26.4431 20.875 26.7969Z" fill="black" stroke="#94A3B8" stroke-width="2"/>
<path d="M8.75 3.28125V5.46875" stroke="#94A3B8" stroke-width="2" stroke-linecap="round" stroke-linejoin="round"/>
<path d="M26.25 3.28125V5.46875" stroke="#94A3B8" stroke-width="2" stroke-linecap="round" stroke-linejoin="round"/>
<path d="M31.7188 10.9375H3.28125" stroke="#94A3B8" stroke-width="2" stroke-linejoin="round"/>
</svg>
